<svg xmlns="http://www.w3.org/2000/svg" xmlns:xlink="http://www.w3.org/1999/xlink" width="24" height="24" version="1.1" viewBox="0 0 24 24"><title>Stockholm-icons / Navigation / Arrow-down</title><desc>Created with Sketch.</desc><g id="Stockholm-icons-/-Navigation-/-Arrow-down" fill="none" fill-rule="evenodd" stroke="none" stroke-width="1"><polygon id="Shape" points="0 0 24 0 24 24 0 24"/><rect id="Rectangle" width="2" height="14" x="11" y="5" fill="#000" opacity=".3" rx="1"/><path id="Path-94" fill="#000" fill-rule="nonzero" d="M6.70710678,18.7071068 C6.31658249,19.0976311 5.68341751,19.0976311 5.29289322,18.7071068 C4.90236893,18.3165825 4.90236893,17.6834175 5.29289322,17.2928932 L11.2928932,11.2928932 C11.6714722,10.9143143 12.2810586,10.9010687 12.6757246,11.2628459 L18.6757246,16.7628459 C19.0828436,17.1360383 19.1103465,17.7686056 18.7371541,18.1757246 C18.3639617,18.5828436 17.7313944,18.6103465 17.3242754,18.2371541 L12.0300757,13.3841378 L6.70710678,18.7071068 Z" transform="translate(12.000003, 14.999999) scale(1, -1) translate(-12.000003, -14.999999)"/></g></svg>