<svg xmlns="http://www.w3.org/2000/svg" xmlns:xlink="http://www.w3.org/1999/xlink" width="24" height="24" version="1.1" viewBox="0 0 24 24"><title>Stockholm-icons / Navigation / Arrow-from-left</title><desc>Created with Sketch.</desc><g id="Stockholm-icons-/-Navigation-/-Arrow-from-left" fill="none" fill-rule="evenodd" stroke="none" stroke-width="1"><polygon id="Shape" points="0 0 24 0 24 24 0 24"/><rect id="Rectangle" width="2" height="14" x="13" y="5" fill="#000" opacity=".3" rx="1" transform="translate(14.000000, 12.000000) rotate(-90.000000) translate(-14.000000, -12.000000)"/><rect id="Rectangle-199-Copy" width="2" height="18" x="3" y="3" fill="#000" opacity=".3" rx="1"/><path id="Path-94" fill="#000" fill-rule="nonzero" d="M11.7071032,15.7071045 C11.3165789,16.0976288 10.6834139,16.0976288 10.2928896,15.7071045 C9.90236532,15.3165802 9.90236532,14.6834152 10.2928896,14.2928909 L16.2928896,8.29289093 C16.6714686,7.914312 17.281055,7.90106637 17.675721,8.26284357 L23.675721,13.7628436 C24.08284,14.136036 24.1103429,14.7686034 23.7371505,15.1757223 C23.3639581,15.5828413 22.7313908,15.6103443 22.3242718,15.2371519 L17.0300721,10.3841355 L11.7071032,15.7071045 Z" transform="translate(16.999999, 11.999997) scale(1, -1) rotate(90.000000) translate(-16.999999, -11.999997)"/></g></svg>