<svg xmlns="http://www.w3.org/2000/svg" xmlns:xlink="http://www.w3.org/1999/xlink" width="24" height="24" version="1.1" viewBox="0 0 24 24"><title>Stockholm-icons / Navigation / Arrow-to-up</title><desc>Created with Sketch.</desc><g id="Stockholm-icons-/-Navigation-/-Arrow-to-up" fill="none" fill-rule="evenodd" stroke="none" stroke-width="1"><polygon id="Shape" points="0 0 24 0 24 24 0 24"/><rect id="Rectangle" width="2" height="14" x="11" y="7" fill="#000" opacity=".3" rx="1"/><path id="Path-94" fill="#000" fill-rule="nonzero" d="M6.70710678,14.7071068 C6.31658249,15.0976311 5.68341751,15.0976311 5.29289322,14.7071068 C4.90236893,14.3165825 4.90236893,13.6834175 5.29289322,13.2928932 L11.2928932,7.29289322 C11.6714722,6.91431428 12.2810586,6.90106866 12.6757246,7.26284586 L18.6757246,12.7628459 C19.0828436,13.1360383 19.1103465,13.7686056 18.7371541,14.1757246 C18.3639617,14.5828436 17.7313944,14.6103465 17.3242754,14.2371541 L12.0300757,9.38413782 L6.70710678,14.7071068 Z"/><rect id="Rectangle-199" width="18" height="2" x="3" y="3" fill="#000" opacity=".3" rx="1"/></g></svg>