<svg xmlns="http://www.w3.org/2000/svg" xmlns:xlink="http://www.w3.org/1999/xlink" width="24" height="24" version="1.1" viewBox="0 0 24 24"><title>Stockholm-icons / Shopping / Chart-bar#1</title><desc>Created with Sketch.</desc><g id="Stockholm-icons-/-Shopping-/-Chart-bar#1" fill="none" fill-rule="evenodd" stroke="none" stroke-width="1"><rect id="bound" width="24" height="24" x="0" y="0"/><rect id="Rectangle-62-Copy" width="3" height="13" x="12" y="4" fill="#000" opacity=".3" rx="1.5"/><rect id="Rectangle-62-Copy-2" width="3" height="8" x="7" y="9" fill="#000" opacity=".3" rx="1.5"/><path id="Path-95" fill="#000" fill-rule="nonzero" d="M5,19 L20,19 C20.5522847,19 21,19.4477153 21,20 C21,20.5522847 20.5522847,21 20,21 L4,21 C3.44771525,21 3,20.5522847 3,20 L3,4 C3,3.44771525 3.44771525,3 4,3 C4.55228475,3 5,3.44771525 5,4 L5,19 Z"/><rect id="Rectangle-62-Copy-4" width="3" height="6" x="17" y="11" fill="#000" opacity=".3" rx="1.5"/></g></svg>