<svg xmlns="http://www.w3.org/2000/svg" xmlns:xlink="http://www.w3.org/1999/xlink" width="24" height="24" version="1.1" viewBox="0 0 24 24"><title>Stockholm-icons / Shopping / Loader</title><desc>Created with Sketch.</desc><g id="Stockholm-icons-/-Shopping-/-Loader" fill="none" fill-rule="evenodd" stroke="none" stroke-width="1"><rect id="bound" width="24" height="24" x="0" y="0"/><path id="Combined-Shape" fill="#000" d="M8,4 C8.55228475,4 9,4.44771525 9,5 L9,17 L18,17 C18.5522847,17 19,17.4477153 19,18 C19,18.5522847 18.5522847,19 18,19 L9,19 C8.44771525,19 8,18.5522847 8,18 C7.44771525,18 7,17.5522847 7,17 L7,6 L5,6 C4.44771525,6 4,5.55228475 4,5 C4,4.44771525 4.44771525,4 5,4 L8,4 Z" opacity=".3"/><rect id="Rectangle-63-Copy" width="8" height="8" x="11" y="7" fill="#000" opacity=".3" rx="4"/><circle id="Oval" cx="8" cy="18" r="3" fill="#000"/></g></svg>