<svg xmlns="http://www.w3.org/2000/svg" xmlns:xlink="http://www.w3.org/1999/xlink" width="24" height="24" version="1.1" viewBox="0 0 24 24"><title>Stockholm-icons / Shopping / Sale#2</title><desc>Created with Sketch.</desc><g id="Stockholm-icons-/-Shopping-/-Sale#2" fill="none" fill-rule="evenodd" stroke="none" stroke-width="1"><rect id="bound" width="24" height="24" x="0" y="0"/><polygon id="Combined-Shape" fill="#000" points="12 20.022 8.473 21.729 6.869 18.154 3.07 17.195 4.139 13.426 1.846 10.249 5.087 8.048 5.372 4.141 9.27 4.539 12 1.729 14.73 4.539 18.628 4.141 18.913 8.048 22.154 10.249 19.861 13.426 20.93 17.195 17.131 18.154 15.527 21.729" opacity=".3"/><polygon id="Stroke-1" fill="#000" points="14.089 8.603 8.361 14.701 9.709 16.049 15.437 9.95"/><path id="Fill-2" fill="#000" d="M10.8543431,9.1753866 C10.8543431,10.1252593 10.085524,10.8938719 9.13585777,10.8938719 C8.18793881,10.8938719 7.41737243,10.1252593 7.41737243,9.1753866 C7.41737243,8.22551387 8.18793881,7.45690126 9.13585777,7.45690126 C10.085524,7.45690126 10.8543431,8.22551387 10.8543431,9.1753866" opacity=".3"/><path id="Fill-4" fill="#000" d="M14.8641422,16.6221564 C13.9162233,16.6221564 13.1456569,15.8535438 13.1456569,14.9036711 C13.1456569,13.9520555 13.9162233,13.1851857 14.8641422,13.1851857 C15.8138085,13.1851857 16.5826276,13.9520555 16.5826276,14.9036711 C16.5826276,15.8535438 15.8138085,16.6221564 14.8641422,16.6221564 Z" opacity=".3"/></g></svg>