<svg xmlns="http://www.w3.org/2000/svg" xmlns:xlink="http://www.w3.org/1999/xlink" width="24" height="24" version="1.1" viewBox="0 0 24 24"><title>Stockholm-icons / Shopping / Sort#1</title><desc>Created with Sketch.</desc><g id="Stockholm-icons-/-Shopping-/-Sort#1" fill="none" fill-rule="evenodd" stroke="none" stroke-width="1"><rect id="bound" width="24" height="24" x="0" y="0"/><rect id="Rectangle-8" width="16" height="3" x="4" y="5" fill="#000" rx="1.5"/><path id="Combined-Shape" fill="#000" d="M7.5,11 L16.5,11 C17.3284271,11 18,11.6715729 18,12.5 C18,13.3284271 17.3284271,14 16.5,14 L7.5,14 C6.67157288,14 6,13.3284271 6,12.5 C6,11.6715729 6.67157288,11 7.5,11 Z M10.5,17 L13.5,17 C14.3284271,17 15,17.6715729 15,18.5 C15,19.3284271 14.3284271,20 13.5,20 L10.5,20 C9.67157288,20 9,19.3284271 9,18.5 C9,17.6715729 9.67157288,17 10.5,17 Z" opacity=".3"/></g></svg>