<svg xmlns="http://www.w3.org/2000/svg" xmlns:xlink="http://www.w3.org/1999/xlink" width="24" height="24" version="1.1" viewBox="0 0 24 24"><title>Stockholm-icons / Shopping / Wallet#2</title><desc>Created with Sketch.</desc><g id="Stockholm-icons-/-Shopping-/-Wallet#2" fill="none" fill-rule="evenodd" stroke="none" stroke-width="1"><rect id="bound" width="24" height="24" x="0" y="0"/><rect id="Rectangle-2" width="10" height="12" x="2" y="2" fill="#000" opacity=".3" rx="2"/><path id="Combined-Shape" fill="#000" d="M4,6 L20,6 C21.1045695,6 22,6.8954305 22,8 L22,20 C22,21.1045695 21.1045695,22 20,22 L4,22 C2.8954305,22 2,21.1045695 2,20 L2,8 C2,6.8954305 2.8954305,6 4,6 Z M18,16 C19.1045695,16 20,15.1045695 20,14 C20,12.8954305 19.1045695,12 18,12 C16.8954305,12 16,12.8954305 16,14 C16,15.1045695 16.8954305,16 18,16 Z"/></g></svg>