<svg xmlns="http://www.w3.org/2000/svg" xmlns:xlink="http://www.w3.org/1999/xlink" width="24" height="24" version="1.1" viewBox="0 0 24 24"><title>Stockholm-icons / Weather / Thunder</title><desc>Created with Sketch.</desc><g id="Stockholm-icons-/-Weather-/-Thunder" fill="none" fill-rule="evenodd" stroke="none" stroke-width="1"><polygon id="Shape" points="0 0 24 0 24 24 0 24"/><polygon id="Path-3" fill="#000" points="10.089 24 14.533 18 12.311 18 12.311 14 7.867 20 10.089 20" opacity=".3"/><path id="Combined-Shape" fill="#000" d="M5.74714567,14.0425758 C4.09410362,12.9740356 3,11.1147886 3,9 C3,5.6862915 5.6862915,3 9,3 C11.7957591,3 14.1449096,4.91215918 14.8109738,7.5 L17.25,7.5 C19.3210678,7.5 21,9.17893219 21,11.25 C21,13.3210678 19.3210678,15 17.25,15 L8.25,15 C7.28817895,15 6.41093178,14.6378962 5.74714567,14.0425758 Z"/></g></svg>