<svg xmlns="http://www.w3.org/2000/svg" xmlns:xlink="http://www.w3.org/1999/xlink" width="24" height="24" version="1.1" viewBox="0 0 24 24"><title>Stockholm-icons / Communication / Chat-smile</title><desc>Created with Sketch.</desc><g id="Stockholm-icons-/-Communication-/-Chat-smile" fill="none" fill-rule="evenodd" stroke="none" stroke-width="1"><rect id="bound" width="24" height="24" x="0" y="0"/><polygon id="Path-75" fill="#000" points="5 15 3 21.5 9.5 19.5" opacity=".3"/><path id="Combined-Shape" fill="#000" d="M13,2 C18.5228475,2 23,6.4771525 23,12 C23,17.5228475 18.5228475,22 13,22 C7.4771525,22 3,17.5228475 3,12 C3,6.4771525 7.4771525,2 13,2 Z M7.16794971,13.5547002 C8.67758127,15.8191475 10.6456687,17 13,17 C15.3543313,17 17.3224187,15.8191475 18.8320503,13.5547002 C19.1384028,13.0951715 19.0142289,12.4743022 18.5547002,12.1679497 C18.0951715,11.8615972 17.4743022,11.9857711 17.1679497,12.4452998 C16.0109146,14.1808525 14.6456687,15 13,15 C11.3543313,15 9.9890854,14.1808525 8.83205029,12.4452998 C8.52569784,11.9857711 7.90482849,11.8615972 7.4452998,12.1679497 C6.98577112,12.4743022 6.86159725,13.0951715 7.16794971,13.5547002 Z"/></g></svg>