<svg xmlns="http://www.w3.org/2000/svg" xmlns:xlink="http://www.w3.org/1999/xlink" width="24" height="24" version="1.1" viewBox="0 0 24 24"><title>Stockholm-icons / Communication / Contact#1</title><desc>Created with Sketch.</desc><g id="Stockholm-icons-/-Communication-/-Contact#1" fill="none" fill-rule="evenodd" stroke="none" stroke-width="1"><rect id="bound" width="24" height="24" x="0" y="0"/><circle id="Combined-Shape" cx="12" cy="12" r="10" fill="#000" opacity=".3"/><path id="Combined-Shape" fill="#000" d="M12,11 C10.8954305,11 10,10.1045695 10,9 C10,7.8954305 10.8954305,7 12,7 C13.1045695,7 14,7.8954305 14,9 C14,10.1045695 13.1045695,11 12,11 Z M7.00036205,16.4995035 C7.21569918,13.5165724 9.36772908,12 11.9907452,12 C14.6506758,12 16.8360465,13.4332455 16.9988413,16.5 C17.0053266,16.6221713 16.9988413,17 16.5815,17 L7.4041679,17 C7.26484009,17 6.98863236,16.6619875 7.00036205,16.4995035 Z" opacity=".3"/></g></svg>