<svg xmlns="http://www.w3.org/2000/svg" xmlns:xlink="http://www.w3.org/1999/xlink" width="24" height="24" version="1.1" viewBox="0 0 24 24"><title>Stockholm-icons / Communication / Mail-box</title><desc>Created with Sketch.</desc><g id="Stockholm-icons-/-Communication-/-Mail-box" fill="none" fill-rule="evenodd" stroke="none" stroke-width="1"><rect id="bound" width="24" height="24" x="0" y="0"/><path id="Combined-Shape" fill="#000" d="M22,15 L22,19 C22,20.1045695 21.1045695,21 20,21 L4,21 C2.8954305,21 2,20.1045695 2,19 L2,15 L6.27924078,15 L6.82339262,16.6324555 C7.09562072,17.4491398 7.8598984,18 8.72075922,18 L15.381966,18 C16.1395101,18 16.8320364,17.5719952 17.1708204,16.8944272 L18.118034,15 L22,15 Z"/><path id="Path" fill="#000" d="M2.5625,13 L5.92654389,7.01947752 C6.2807805,6.38972356 6.94714834,6 7.66969497,6 L16.330305,6 C17.0528517,6 17.7192195,6.38972356 18.0734561,7.01947752 L21.4375,13 L18.118034,13 C17.3604899,13 16.6679636,13.4280048 16.3291796,14.1055728 L15.381966,16 L8.72075922,16 L8.17660738,14.3675445 C7.90437928,13.5508602 7.1401016,13 6.27924078,13 L2.5625,13 Z" opacity=".3"/></g></svg>