<svg xmlns="http://www.w3.org/2000/svg" xmlns:xlink="http://www.w3.org/1999/xlink" width="24" height="24" version="1.1" viewBox="0 0 24 24"><title>Stockholm-icons / Design / Flip-horizontal</title><desc>Created with Sketch.</desc><g id="Stockholm-icons-/-Design-/-Flip-horizontal" fill="none" fill-rule="evenodd" stroke="none" stroke-width="1"><rect id="bound" width="24" height="24" x="0" y="0"/><path id="Path-14" fill="#000" d="M3.73851648,19 L8.5,19 C8.77614237,19 9,18.7761424 9,18.5 L9,6.5962912 C9,6.32014883 8.77614237,6.0962912 8.5,6.0962912 C8.29554771,6.0962912 8.11169333,6.22076667 8.03576165,6.41059586 L3.27427814,18.3143047 C3.17172143,18.5706964 3.29642938,18.8616816 3.55282114,18.9642383 C3.61188128,18.9878624 3.67490677,19 3.73851648,19 Z" opacity=".3"/><path id="Path-14-Copy" fill="#000" d="M15.7385165,19 L20.5,19 C20.7761424,19 21,18.7761424 21,18.5 L21,6.5962912 C21,6.32014883 20.7761424,6.0962912 20.5,6.0962912 C20.2955477,6.0962912 20.1116933,6.22076667 20.0357617,6.41059586 L15.2742781,18.3143047 C15.1717214,18.5706964 15.2964294,18.8616816 15.5528211,18.9642383 C15.6118813,18.9878624 15.6749068,19 15.7385165,19 Z" transform="translate(18.000000, 12.500000) scale(-1, 1) translate(-18.000000, -12.500000)"/><rect id="Rectangle" width="2" height="20" x="11" y="2" fill="#000" opacity=".3" rx="1"/></g></svg>