<svg xmlns="http://www.w3.org/2000/svg" xmlns:xlink="http://www.w3.org/1999/xlink" width="24" height="24" version="1.1" viewBox="0 0 24 24"><title>Stockholm-icons / Design / Saturation</title><desc>Created with Sketch.</desc><g id="Stockholm-icons-/-Design-/-Saturation" fill="none" fill-rule="evenodd" stroke="none" stroke-width="1"><rect id="bound" width="24" height="24" x="0" y="0"/><path id="Oval-2" fill="#000" fill-rule="nonzero" d="M7,14 C7,16.7614237 9.23857625,19 12,19 C14.7614237,19 17,16.7614237 17,14 C17,12.3742163 15.3702913,9.86852817 12,6.69922982 C8.62970872,9.86852817 7,12.3742163 7,14 Z M12,21 C8.13400675,21 5,17.8659932 5,14 C5,11.4226712 7.33333333,8.08933783 12,4 C16.6666667,8.08933783 19,11.4226712 19,14 C19,17.8659932 15.8659932,21 12,21 Z"/><path id="Combined-Shape" fill="#000" d="M12,4 C16.6666667,8.08933783 19,11.4226712 19,14 C19,17.8659932 15.8659932,21 12,21 L12,4 Z"/></g></svg>