<svg xmlns="http://www.w3.org/2000/svg" xmlns:xlink="http://www.w3.org/1999/xlink" width="24" height="24" version="1.1" viewBox="0 0 24 24"><title>Stockholm-icons / Devices / iPhone-x-back</title><desc>Created with Sketch.</desc><g id="Stockholm-icons-/-Devices-/-iPhone-x-back" fill="none" fill-rule="evenodd" stroke="none" stroke-width="1"><rect id="bound" width="24" height="24" x="0" y="0"/><path id="Combined-Shape" fill="#000" d="M8,2 L16,2 C17.1045695,2 18,2.8954305 18,4 L18,20 C18,21.1045695 17.1045695,22 16,22 L8,22 C6.8954305,22 6,21.1045695 6,20 L6,4 C6,2.8954305 6.8954305,2 8,2 Z M8,3 C7.44771525,3 7,3.44771525 7,4 L7,6 C7,6.55228475 7.44771525,7 8,7 C8.55228475,7 9,6.55228475 9,6 L9,4 C9,3.44771525 8.55228475,3 8,3 Z"/></g></svg>