<svg xmlns="http://www.w3.org/2000/svg" xmlns:xlink="http://www.w3.org/1999/xlink" width="24" height="24" version="1.1" viewBox="0 0 24 24"><title>Stockholm-icons / Devices / Radio</title><desc>Created with Sketch.</desc><g id="Stockholm-icons-/-Devices-/-Radio" fill="none" fill-rule="evenodd" stroke="none" stroke-width="1"><rect id="bound" width="24" height="24" x="0" y="0"/><path id="Combined-Shape" fill="#000" d="M4,7 L20,7 C21.1045695,7 22,7.8954305 22,9 L22,19 C22,20.1045695 21.1045695,21 20,21 L4,21 C2.8954305,21 2,20.1045695 2,19 L2,9 C2,7.8954305 2.8954305,7 4,7 Z M16,18 C18.209139,18 20,16.209139 20,14 C20,11.790861 18.209139,10 16,10 C13.790861,10 12,11.790861 12,14 C12,16.209139 13.790861,18 16,18 Z" opacity=".3"/><path id="Combined-Shape" fill="#000" d="M20.6185961,7.09750181 C20.4238038,7.03420884 20.2158968,7 20,7 L17.2014013,7 L8.01276516,1.87327098 C7.53047091,1.60417861 7.35763664,0.995059403 7.62672902,0.512765158 C7.89582139,0.0304709116 8.5049406,-0.142363355 8.98723484,0.126729018 L20.1117466,6.33356496 C20.4052818,6.49734071 20.5841864,6.78706979 20.6185961,7.09750181 Z"/><path id="Oval" fill="#000" d="M16,16 C17.1045695,16 18,15.1045695 18,14 C18,12.8954305 17.1045695,12 16,12 C14.8954305,12 14,12.8954305 14,14 C14,15.1045695 14.8954305,16 16,16 Z"/><rect id="Rectangle-51" width="5" height="2" x="4" y="11" fill="#000" opacity=".3" rx="1"/><rect id="Rectangle-51-Copy-2" width="5" height="2" x="4" y="15" fill="#000" opacity=".3" rx="1"/></g></svg>