<svg xmlns="http://www.w3.org/2000/svg" xmlns:xlink="http://www.w3.org/1999/xlink" width="24" height="24" version="1.1" viewBox="0 0 24 24"><title>Stockholm-icons / Devices / TV#1</title><desc>Created with Sketch.</desc><g id="Stockholm-icons-/-Devices-/-TV#1" fill="none" fill-rule="evenodd" stroke="none" stroke-width="1"><rect id="bound" width="24" height="24" x="0" y="0"/><path id="Combined-Shape" fill="#000" fill-rule="nonzero" d="M4.5,6 L19.5,6 C20.8807119,6 22,6.97004971 22,8.16666667 L22,16.8333333 C22,18.0299503 20.8807119,19 19.5,19 L4.5,19 C3.11928813,19 2,18.0299503 2,16.8333333 L2,8.16666667 C2,6.97004971 3.11928813,6 4.5,6 Z M4,8 L4,17 L20,17 L20,8 L4,8 Z"/><polygon id="Combined-Shape" fill="#000" points="4 8 4 17 20 17 20 8" opacity=".3"/><rect id="Rectangle" width="10" height="1" x="7" y="20" fill="#000" opacity=".3" rx=".5"/></g></svg>