<svg xmlns="http://www.w3.org/2000/svg" xmlns:xlink="http://www.w3.org/1999/xlink" width="24" height="24" version="1.1" viewBox="0 0 24 24"><title>Stockholm-icons / Devices / USB</title><desc>Created with Sketch.</desc><g id="Stockholm-icons-/-Devices-/-USB" fill="none" fill-rule="evenodd" stroke="none" stroke-width="1"><rect id="bound" width="24" height="24" x="0" y="0"/><rect id="Rectangle-69" width="16" height="9" x="4" y="9" fill="#000" rx="2"/><path id="Combined-Shape" fill="#000" d="M7,3 L17,3 L17,9 L7,9 L7,3 Z M9,5 L9,7 L11,7 L11,5 L9,5 Z M13,5 L13,7 L15,7 L15,5 L13,5 Z" opacity=".3"/><path id="Rectangle-3" fill="#000" d="M10,18 L14,18 L14,20 C14,20.5522847 13.5522847,21 13,21 L11,21 C10.4477153,21 10,20.5522847 10,20 L10,18 Z" opacity=".3"/></g></svg>