<svg xmlns="http://www.w3.org/2000/svg" xmlns:xlink="http://www.w3.org/1999/xlink" width="24" height="24" version="1.1" viewBox="0 0 24 24"><title>Stockholm-icons / Food / Coffee#2</title><desc>Created with Sketch.</desc><g id="Stockholm-icons-/-Food-/-Coffee#2" fill="none" fill-rule="evenodd" stroke="none" stroke-width="1"><rect id="bound" width="24" height="24" x="0" y="0"/><path id="Combined-Shape" fill="#000" d="M8,4 L21,4 C21.5522847,4 22,4.44771525 22,5 L22,16 C22,18.209139 20.209139,20 18,20 L11,20 C8.790861,20 7,18.209139 7,16 L7,5 C7,4.44771525 7.44771525,4 8,4 Z" opacity=".3"/><path id="Path-52" fill="#000" fill-rule="nonzero" d="M7,7 L7,9 L5,9 C4.44771525,9 4,9.44771525 4,10 L4,12 C4,12.5522847 4.44771525,13 5,13 L7,13 L7,15 L5,15 C3.34314575,15 2,13.6568542 2,12 L2,10 C2,8.34314575 3.34314575,7 5,7 L7,7 Z"/><rect id="Rectangle-119" width="2" height="8" x="18" y="7" fill="#000" opacity=".3" rx="1"/></g></svg>