<svg xmlns="http://www.w3.org/2000/svg" xmlns:xlink="http://www.w3.org/1999/xlink" width="24" height="24" version="1.1" viewBox="0 0 24 24"><title>Stockholm-icons / Files / File</title><desc>Created with Sketch.</desc><g id="Stockholm-icons-/-Files-/-File" fill="none" fill-rule="evenodd" stroke="none" stroke-width="1"><polygon id="Shape" points="0 0 24 0 24 24 0 24"/><path id="Combined-Shape" fill="#000" fill-rule="nonzero" d="M5.85714286,2 L13.7364114,2 C14.0910962,2 14.4343066,2.12568431 14.7051108,2.35473959 L19.4686994,6.3839416 C19.8056532,6.66894833 20,7.08787823 20,7.52920201 L20,20.0833333 C20,21.8738751 19.9795521,22 18.1428571,22 L5.85714286,22 C4.02044787,22 4,21.8738751 4,20.0833333 L4,3.91666667 C4,2.12612489 4.02044787,2 5.85714286,2 Z" opacity=".3"/><rect id="Rectangle" width="9" height="2" x="6" y="11" fill="#000" rx="1"/><rect id="Rectangle-Copy" width="5" height="2" x="6" y="15" fill="#000" rx="1"/></g></svg>