<svg xmlns="http://www.w3.org/2000/svg" xmlns:xlink="http://www.w3.org/1999/xlink" width="24" height="24" version="1.1" viewBox="0 0 24 24"><title>Stockholm-icons / Files / Pictures#2</title><desc>Created with Sketch.</desc><g id="Stockholm-icons-/-Files-/-Pictures#2" fill="none" fill-rule="evenodd" stroke="none" stroke-width="1"><rect id="bound" width="24" height="24" x="0" y="0"/><path id="Combined-Shape" fill="#000" d="M3.5,21 L20.5,21 C21.3284271,21 22,20.3284271 22,19.5 L22,8.5 C22,7.67157288 21.3284271,7 20.5,7 L10,7 L7.43933983,4.43933983 C7.15803526,4.15803526 6.77650439,4 6.37867966,4 L3.5,4 C2.67157288,4 2,4.67157288 2,5.5 L2,19.5 C2,20.3284271 2.67157288,21 3.5,21 Z" opacity=".3"/><circle id="Oval-32" cx="13.5" cy="16.5" r="2.5" fill="#000" opacity=".3"/><circle id="Oval-32-Copy" cx="10.5" cy="16.5" r="2.5" fill="#000" opacity=".3"/><circle id="Oval-32-Copy-2" cx="9.5" cy="13.5" r="2.5" fill="#000" opacity=".3"/><circle id="Oval-32-Copy-3" cx="14.5" cy="13.5" r="2.5" fill="#000" opacity=".3"/><circle id="Oval-32-Copy-4" cx="12" cy="11.5" r="2.5" fill="#000" opacity=".3"/></g></svg>