<svg xmlns="http://www.w3.org/2000/svg" xmlns:xlink="http://www.w3.org/1999/xlink" width="24" height="24" version="1.1" viewBox="0 0 24 24"><title>Stockholm-icons / Cooking / Dishes</title><desc>Created with Sketch.</desc><g id="Stockholm-icons-/-Cooking-/-Dishes" fill="none" fill-rule="evenodd" stroke="none" stroke-width="1"><rect id="bound" width="24" height="24" x="0" y="0"/><path id="Combined-Shape" fill="#000" d="M3,16 L21,16 C21,18.209139 19.209139,20 17,20 L7,20 C4.790861,20 3,18.209139 3,16 Z M3,11 L21,11 L21,12 C21,13.1045695 20.1045695,14 19,14 L5,14 C3.8954305,14 3,13.1045695 3,12 L3,11 Z"/><path id="Rectangle-135-Copy-2" fill="#000" d="M3,5 L21,5 L21,7 C21,8.1045695 20.1045695,9 19,9 L5,9 C3.8954305,9 3,8.1045695 3,7 L3,5 Z" opacity=".3"/></g></svg>