<svg xmlns="http://www.w3.org/2000/svg" xmlns:xlink="http://www.w3.org/1999/xlink" width="24" height="24" version="1.1" viewBox="0 0 24 24"><title>Stockholm-icons / Layout / Layout-top-panel-5</title><desc>Created with Sketch.</desc><g id="Stockholm-icons-/-Layout-/-Layout-top-panel-5" fill="none" fill-rule="evenodd" stroke="none" stroke-width="1"><rect id="bound" width="24" height="24" x="0" y="0"/><path id="Combined-Shape" fill="#000" d="M3,4 L20,4 C20.5522847,4 21,4.44771525 21,5 L21,7 C21,7.55228475 20.5522847,8 20,8 L3,8 C2.44771525,8 2,7.55228475 2,7 L2,5 C2,4.44771525 2.44771525,4 3,4 Z M10,10 L20,10 C20.5522847,10 21,10.4477153 21,11 L21,13 C21,13.5522847 20.5522847,14 20,14 L10,14 C9.44771525,14 9,13.5522847 9,13 L9,11 C9,10.4477153 9.44771525,10 10,10 Z M10,16 L20,16 C20.5522847,16 21,16.4477153 21,17 L21,19 C21,19.5522847 20.5522847,20 20,20 L10,20 C9.44771525,20 9,19.5522847 9,19 L9,17 C9,16.4477153 9.44771525,16 10,16 Z"/><rect id="Rectangle-7-Copy-2" width="5" height="10" x="2" y="10" fill="#000" opacity=".3" rx="1"/></g></svg>