<svg xmlns="http://www.w3.org/2000/svg" xmlns:xlink="http://www.w3.org/1999/xlink" width="24" height="24" version="1.1" viewBox="0 0 24 24"><title>Stockholm-icons / General / Lock</title><desc>Created with Sketch.</desc><defs><polygon id="path-1" points="0 0 24 0 24 24 0 24"/></defs><g id="Stockholm-icons-/-General-/-Lock" fill="none" fill-rule="evenodd" stroke="none" stroke-width="1"><mask id="mask-2" fill="#fff"><use xlink:href="#path-1"/></mask><path id="Mask" fill="#000" d="M7,10 L7,8 C7,5.23857625 9.23857625,3 12,3 C14.7614237,3 17,5.23857625 17,8 L17,10 L18,10 C19.1045695,10 20,10.8954305 20,12 L20,18 C20,19.1045695 19.1045695,20 18,20 L6,20 C4.8954305,20 4,19.1045695 4,18 L4,12 C4,10.8954305 4.8954305,10 6,10 L7,10 Z M12,5 C10.3431458,5 9,6.34314575 9,8 L9,10 L15,10 L15,8 C15,6.34314575 13.6568542,5 12,5 Z"/></g></svg>