<svg xmlns="http://www.w3.org/2000/svg" xmlns:xlink="http://www.w3.org/1999/xlink" width="24" height="24" version="1.1" viewBox="0 0 24 24"><title>Stockholm-icons / General / Trash</title><desc>Created with Sketch.</desc><g id="Stockholm-icons-/-General-/-Trash" fill="none" fill-rule="evenodd" stroke="none" stroke-width="1"><rect id="bound" width="24" height="24" x="0" y="0"/><path id="round" fill="#000" fill-rule="nonzero" d="M6,8 L6,20.5 C6,21.3284271 6.67157288,22 7.5,22 L16.5,22 C17.3284271,22 18,21.3284271 18,20.5 L18,8 L6,8 Z"/><path id="Shape" fill="#000" d="M14,4.5 L14,4 C14,3.44771525 13.5522847,3 13,3 L11,3 C10.4477153,3 10,3.44771525 10,4 L10,4.5 L5.5,4.5 C5.22385763,4.5 5,4.72385763 5,5 L5,5.5 C5,5.77614237 5.22385763,6 5.5,6 L18.5,6 C18.7761424,6 19,5.77614237 19,5.5 L19,5 C19,4.72385763 18.7761424,4.5 18.5,4.5 L14,4.5 Z" opacity=".3"/></g></svg>